<svg xmlns="http://www.w3.org/2000/svg" width="938" height="266" viewBox="0 0 938 266" version="1.1"><path d="M 578.938 48.750 C 578.904 75.563, 578.896 114.375, 578.921 135 C 578.946 155.625, 578.974 186.787, 578.983 204.250 L 579 236 635 236 L 691 236 691 210.500 L 691 185 658.979 185 L 626.959 185 627.229 164.750 L 627.500 144.500 659.250 144.236 L 691 143.972 691 118.486 L 691 93 658.977 93 L 626.955 93 627.227 74.750 L 627.500 56.500 658 56.345 C 674.775 56.260, 689.063 56.148, 689.750 56.095 C 690.718 56.022, 691 49.683, 691 28 L 691 0 635 0 L 579 0 578.938 48.750 M 698.144 92.834 L 693.788 93.500 697.714 98 C 699.874 100.475, 704.018 105.650, 706.924 109.500 C 709.829 113.350, 716.675 122.125, 722.136 129 C 752.978 167.826, 751.084 165.127, 749.202 167.564 C 748.266 168.775, 739.625 179.132, 730 190.579 C 720.375 202.025, 709.412 215.240, 705.639 219.945 C 701.865 224.650, 697.477 229.871, 695.889 231.548 C 694.300 233.224, 693 234.911, 693 235.298 C 693 235.684, 706.477 236, 722.949 236 L 752.898 236 755.630 232.250 C 760.844 225.091, 767.434 216.453, 774.361 207.698 C 780.224 200.286, 781.539 199.110, 782.681 200.253 C 783.428 200.999, 789.797 209.235, 796.836 218.555 L 809.634 235.500 840.317 235.764 C 857.193 235.910, 871 235.797, 871 235.513 C 871 234.967, 861.895 223.255, 844.211 201.052 C 838.320 193.656, 830.422 183.531, 826.660 178.552 C 822.899 173.574, 818.667 168.279, 817.258 166.786 C 815.444 164.865, 814.981 163.697, 815.674 162.786 C 816.212 162.079, 823.818 152.829, 832.576 142.231 C 841.334 131.632, 850.019 121.057, 851.874 118.731 C 853.730 116.404, 858.230 110.971, 861.874 106.657 C 871.941 94.742, 872.420 94.087, 871.648 93.314 C 871.253 92.919, 857.841 92.669, 841.845 92.758 L 812.761 92.920 809.130 97.132 C 807.134 99.448, 804.850 102.279, 804.055 103.422 C 803.260 104.565, 799.093 109.720, 794.795 114.878 C 790.497 120.035, 786.184 125.349, 785.211 126.685 L 783.441 129.115 780.470 125.191 C 778.837 123.032, 772.589 114.906, 766.586 107.133 L 755.673 93 737.990 93 C 728.264 93, 716.301 92.813, 711.404 92.584 C 706.507 92.356, 700.540 92.468, 698.144 92.834 M 905.994 192.874 C 898.492 195.336, 890.236 202.798, 887.336 209.739 C 885.398 214.376, 885.387 225.597, 887.315 230.211 C 889.118 234.527, 895.034 241.249, 899.347 243.881 C 902.875 246.034, 910.312 248.314, 909.495 246.992 C 909.205 246.522, 909.428 245.854, 909.991 245.506 C 910.554 245.158, 911.284 245.577, 911.614 246.437 C 912.375 248.420, 915.240 248.415, 921.966 246.417 C 925.951 245.234, 928.646 243.484, 932.648 239.483 L 938 234.130 938 220.715 C 938 207.531, 937.951 207.232, 935.129 203.337 C 933.551 201.158, 929.927 197.879, 927.078 196.050 C 922.785 193.296, 920.749 192.668, 915.199 192.389 C 911.514 192.204, 907.372 192.422, 905.994 192.874 M 906.395 200.022 C 904.688 200.550, 901.232 203.183, 898.716 205.873 C 891.611 213.469, 890.449 221.080, 895.026 230.051 C 897.286 234.481, 901.699 237.701, 903.307 236.093 C 904.098 235.302, 904.068 235, 903.200 235 C 902.320 235, 902 231.013, 902 220.060 L 902 205.121 905.750 204.810 C 907.813 204.640, 912.364 204.740, 915.865 205.032 C 921.045 205.466, 922.598 206.021, 924.215 208.017 C 926.828 211.245, 926.115 217.679, 922.850 220.323 L 920.573 222.166 923.287 227.349 C 926.939 234.325, 926.822 235.189, 922.279 234.810 C 918.928 234.531, 918.257 233.961, 915.529 229.079 C 911.284 221.482, 910 221.431, 910 228.858 C 910 232.171, 909.535 235.169, 908.966 235.521 C 907.797 236.244, 912.084 240, 914.079 240 C 914.774 240, 916.128 239.289, 917.088 238.420 C 918.498 237.145, 919.255 237.066, 921.024 238.013 C 922.940 239.038, 923.650 238.766, 926.695 235.842 C 932.335 230.426, 934.277 225.685, 933.816 218.452 C 933.379 211.592, 930.886 207.303, 924.507 202.437 C 920.650 199.496, 911.879 198.326, 906.395 200.022 M 910 213.560 C 910 217.063, 910.061 217.116, 913.750 216.810 C 916.833 216.555, 917.560 216.075, 917.837 214.113 C 918.230 211.337, 916.615 210.037, 912.750 210.015 C 910.262 210.001, 910 210.339, 910 213.560 M 902.990 240.267 C 904.909 241.495, 906.838 242.500, 907.276 242.500 C 907.714 242.500, 908.500 243.175, 909.021 244 C 909.864 245.333, 909.973 245.333, 910 244 C 910.025 242.759, 910.181 242.738, 910.904 243.878 C 911.384 244.636, 912.277 244.947, 912.888 244.569 C 914.990 243.270, 913.989 242.375, 909.002 241.097 C 906.254 240.393, 903.752 239.408, 903.443 238.908 C 903.135 238.409, 902.121 238.008, 901.191 238.017 C 900.126 238.027, 900.793 238.861, 902.990 240.267" stroke="none" fill="#f66406" fill-rule="evenodd"/><path d="M 0 115.500 L 0 231 26.993 231 L 53.986 231 54.243 162.750 L 54.500 94.500 58.617 107 C 60.881 113.875, 67.465 132.775, 73.247 149 C 79.030 165.225, 84.495 180.750, 85.393 183.500 C 86.290 186.250, 90.474 198.070, 94.690 209.767 L 102.355 231.035 126.386 230.767 L 150.417 230.500 157.633 209.500 C 161.602 197.950, 167.400 181.525, 170.518 173 C 173.635 164.475, 178.548 150.525, 181.435 142 C 184.323 133.475, 189.343 119.200, 192.592 110.279 L 198.500 94.057 198.757 162.529 L 199.014 231 224.007 231 L 249 231 249 115.500 L 249 0 215.630 0 L 182.260 0 180.965 4.750 C 180.253 7.363, 175.425 21.200, 170.236 35.500 C 165.047 49.800, 158.647 67.800, 156.014 75.500 C 153.381 83.200, 148.213 97.600, 144.528 107.500 C 140.844 117.400, 135.776 131.463, 133.266 138.750 C 130.756 146.037, 128.364 152, 127.949 152 C 127.535 152, 126.662 150.537, 126.011 148.750 C 119.137 129.901, 95.564 60.835, 84.712 27.750 L 75.610 0 37.805 0 L 0 0 0 115.500 M 511.500 77.122 C 507.650 77.464, 502.602 78.451, 500.283 79.316 C 494.738 81.383, 485.934 87.952, 481.804 93.104 L 478.500 97.225 478 88.863 L 477.500 80.500 456.750 80.440 L 436 80.380 436 173.190 L 436 266 457 266 L 478 266 478 240.892 L 478 215.785 484.031 221.368 C 492.248 228.976, 497.217 231.675, 506.558 233.608 C 520.253 236.441, 534.876 234.307, 545.574 227.915 C 560.888 218.764, 572.874 200.203, 577.360 178.692 C 579.124 170.233, 579.437 150.094, 577.966 139.628 C 574.005 111.441, 557.838 87.738, 537 79.567 C 531.336 77.346, 520.583 76.315, 511.500 77.122 M 308.942 79.233 C 299.364 82.578, 291.533 87.582, 283.488 95.500 C 277.730 101.166, 275.376 104.500, 271.134 113 C 264.081 127.129, 262.010 135.374, 261.340 152 C 260.602 170.324, 262.755 180.925, 270.357 196.393 C 276.798 209.499, 282.985 216.838, 293.541 223.899 C 302.795 230.088, 309.102 232.444, 320.611 234.008 C 338.547 236.445, 353.755 232.122, 366.147 221.063 C 372.596 215.308, 373 215.545, 373 225.082 L 373 231 395.506 231 L 418.013 231 417.756 155.750 L 417.500 80.500 395 80.500 L 372.500 80.500 372.207 88.318 L 371.913 96.135 365.923 90.589 C 362.444 87.369, 356.695 83.472, 352.216 81.298 C 344.530 77.569, 344.444 77.553, 330 77.249 C 316.993 76.975, 314.825 77.179, 308.942 79.233 M 335.054 121.162 C 312.136 124.857, 301.302 155.435, 315.184 177.247 C 321.030 186.433, 329.548 191.079, 341 191.327 C 353.882 191.606, 363.533 185.756, 369.208 174.229 C 372.332 167.883, 372.499 166.980, 372.482 156.521 C 372.467 146.753, 372.167 144.861, 369.847 139.880 C 366.699 133.121, 360.955 126.528, 356.022 124.011 C 352.832 122.384, 350.436 121.777, 342.500 120.584 C 341.400 120.419, 338.049 120.679, 335.054 121.162 M 497.103 122.099 C 491.767 123.724, 482.720 133.458, 480.142 140.350 C 477.020 148.694, 476.376 158.952, 478.471 166.956 C 480.577 174.998, 482.131 178.030, 486.807 183.217 C 498.331 196.001, 519.828 194.740, 529.336 180.724 C 541.428 162.896, 537.556 136.068, 521.234 124.597 C 517.528 121.992, 516.055 121.609, 508.766 121.354 C 504.220 121.195, 498.972 121.530, 497.103 122.099 M 903.028 240.392 C 904.938 241.708, 906.815 242.595, 907.200 242.364 C 907.938 241.921, 909.786 244.815, 909.826 246.475 C 909.858 247.787, 912 248.444, 912 247.142 C 912 246.579, 911.550 245.840, 911 245.500 C 910.450 245.160, 910.007 244.346, 910.015 243.691 C 910.025 242.908, 910.330 242.972, 910.904 243.878 C 911.384 244.636, 912.277 244.947, 912.888 244.569 C 914.990 243.270, 913.989 242.375, 909.002 241.097 C 906.254 240.393, 903.752 239.408, 903.443 238.908 C 903.135 238.409, 902.134 238, 901.219 238 C 900.173 238, 900.844 238.887, 903.028 240.392" stroke="none" fill="#fbfbfb" fill-rule="evenodd"/></svg>